<svg width="200" height="200" viewBox="0 0 200 200" color="#3f51b5" fill="none" xmlns="http://www.w3.org/2000/svg">
  <g stroke="currentColor" stroke-width="8">
    <path d="M 191 70 A 96 96 0 0 1 196 100" opacity="1" />
    <path d="M 178 44 A 96 96 0 0 1 191 70" opacity="0.95" />
    <path d="M 156 22 A 96 96 0 0 1 178 44" opacity="0.90" />
    <path d="M 130 9 A 96 96 0 0 1 156 22" opacity="0.85" />
    <path d="M 100 4 A 96 96 0 0 1 130 9" opacity="0.80" />
    <path d="M 70 9 A 96 96 0 0 1 100 4" opacity="0.75" />
    <path d="M 44 22 A 96 96 0 0 1 70 9" opacity="0.70" />
    <path d="M 22 44 A 96 96 0 0 1 44 22" opacity="0.65" />
    <path d="M 9 70 A 96 96 0 0 1 22 44" opacity="0.60" />
    <path d="M 4 100 A 96 96 0 0 1 9 70" opacity="0.55" />
    <path d="M 9 130 A 96 96 0 0 1 4 100" opacity="0.50" />
    <path d="M 22 156 A 96 96 0 0 1 9 130" opacity="0.45" />
    <path d="M 44 178 A 96 96 0 0 1 22 156" opacity="0.40" />
    <path d="M 70 191 A 96 96 0 0 1 44 178" opacity="0.35" />
    <path d="M 100 196 A 96 96 0 0 1 70 191" opacity="0.30" />
    <path d="M 130 191 A 96 96 0 0 1 100 196" opacity="0.25" />
    <path d="M 156 178 A 96 96 0 0 1 130 191" opacity="0.20" />
    <path d="M 178 156 A 96 96 0 0 1 156 178" opacity="0.15" />
    <path d="M 191 130 A 96 96 0 0 1 178 156" opacity="0.10" />
    <path d="M 196 100 A 96 96 0 0 1 191 130" opacity="0.05" />
  </g>
</svg>
