<?xml version="1.0" standalone="no"?>
<!DOCTYPE svg PUBLIC "-//W3C//DTD SVG 20010904//EN"
 "http://www.w3.org/TR/2001/REC-SVG-20010904/DTD/svg10.dtd">
<svg version="1.0" xmlns="http://www.w3.org/2000/svg"
 width="1542.000000pt" height="1542.000000pt" viewBox="0 0 1542.000000 1542.000000"
 preserveAspectRatio="xMidYMid meet">
<metadata>
Created by potrace 1.14, written by Peter Selinger 2001-2017
</metadata>
<g transform="translate(0.000000,1542.000000) scale(0.100000,-0.100000)"
fill="#000000" stroke="none">
<path d="M7000 15093 c-408 -24 -713 -75 -988 -164 -171 -56 -300 -118 -532
-256 -835 -498 -1110 -709 -1414 -1088 -153 -191 -196 -249 -196 -266 0 -8 12
-31 26 -52 l26 -38 -39 -52 c-74 -98 -117 -173 -220 -387 -58 -118 -113 -236
-124 -261 -15 -34 -35 -56 -80 -88 -66 -47 -64 -43 -144 -261 -128 -351 -209
-642 -239 -855 -42 -309 -100 -832 -126 -1135 -5 -63 -18 -149 -30 -190 -27
-99 -74 -329 -94 -460 -12 -76 -17 -191 -19 -415 -2 -340 -2 -345 73 -645 88
-352 167 -500 395 -742 100 -106 117 -116 203 -121 l74 -4 76 -75 c81 -78 121
-106 447 -310 200 -125 200 -126 275 -132 42 -4 90 -2 109 3 24 7 54 6 106 -4
66 -12 80 -12 146 5 139 34 128 34 126 3 -1 -16 -6 -31 -10 -34 -15 -11 -12
-242 3 -264 4 -5 7 -83 7 -172 -1 -149 -2 -163 -18 -163 -10 0 -28 -4 -41 -9
-35 -15 -129 -40 -163 -45 -17 -2 -58 -17 -90 -33 -33 -17 -105 -50 -160 -74
-147 -64 -267 -151 -249 -180 4 -8 3 -9 -4 -5 -7 4 -13 2 -13 -3 -3 -20 -5
-26 -27 -75 -12 -27 -22 -53 -22 -58 0 -5 -7 -20 -16 -33 -9 -14 -14 -25 -10
-25 3 0 -3 -15 -13 -34 -15 -26 -17 -37 -8 -46 9 -10 9 -11 0 -6 -7 4 -13 3
-13 -3 0 -5 -5 -22 -11 -38 -6 -15 -9 -28 -8 -28 1 0 -8 -20 -20 -44 -12 -23
-17 -40 -11 -36 8 5 9 2 2 -11 -21 -40 -33 -70 -37 -91 -2 -12 -9 -32 -16 -45
-7 -13 -11 -23 -10 -23 3 0 -8 -32 -29 -85 -10 -25 -21 -61 -24 -80 -11 -67
-17 -94 -23 -104 -4 -5 -8 -23 -10 -40 -2 -16 -9 -36 -16 -45 -10 -12 -9 -13
3 -6 12 7 13 6 3 -6 -7 -9 -15 -26 -17 -40 -3 -13 -5 -26 -6 -29 -2 -3 -2 -8
-1 -12 0 -5 -4 -8 -10 -8 -5 0 -8 -4 -4 -9 3 -5 1 -12 -5 -16 -5 -3 -24 -26
-41 -51 -28 -41 -38 -67 -44 -119 -4 -41 -25 -74 -54 -90 -55 -28 -315 -112
-371 -119 -31 -4 -64 -15 -75 -26 -19 -17 -207 -91 -270 -106 -16 -4 -57 -22
-90 -41 -75 -41 -261 -132 -380 -185 -113 -51 -297 -129 -310 -132 -5 -2 -19
-6 -30 -10 -52 -20 -76 -28 -159 -51 -77 -22 -227 -75 -306 -108 -14 -6 -27
-11 -30 -11 -11 -2 -107 -40 -155 -61 -16 -7 -129 -52 -250 -100 -121 -48
-233 -93 -250 -100 -16 -7 -93 -34 -170 -60 -160 -53 -301 -102 -330 -115 -11
-5 -105 -43 -209 -84 -138 -53 -192 -79 -197 -93 -6 -17 -3 -20 25 -18 17 0
38 5 46 10 8 5 -8 -15 -37 -43 l-51 -52 -1 -1640 -1 -1640 7710 0 7710 0 0
1083 -1 1082 -40 45 c-120 132 -191 200 -201 194 -7 -4 -8 -3 -4 4 4 6 -5 22
-20 34 -14 13 -47 42 -73 65 -25 24 -51 43 -58 43 -6 0 -13 3 -15 8 -1 4 -31
22 -66 41 -60 31 -83 49 -190 149 -52 49 -125 102 -141 102 -6 0 -11 4 -11 9
0 4 -20 14 -45 21 -25 7 -48 17 -51 21 -3 5 -13 9 -23 9 -10 0 -24 7 -31 16
-13 14 -68 42 -100 49 -8 2 -15 4 -15 5 0 1 -9 4 -51 13 -6 2 -22 10 -35 18
-13 8 -40 21 -59 29 -19 8 -46 22 -60 31 -14 10 -41 19 -60 21 -44 4 -116 40
-177 90 -63 50 -61 49 -121 81 -29 16 -52 25 -52 20 0 -4 -4 -3 -8 2 -9 14
-159 70 -242 91 -75 19 -95 22 -170 29 -30 3 -62 8 -70 12 -8 4 -22 8 -30 9
-48 9 -103 26 -155 49 -33 15 -75 33 -92 41 -18 8 -50 22 -70 31 -21 10 -40
18 -43 18 -3 1 -21 8 -40 17 -19 8 -64 27 -100 42 -36 15 -74 31 -85 36 -17 7
-50 20 -65 25 -53 18 -242 105 -250 115 -5 6 -156 80 -164 80 -3 0 -17 5 -33
12 -15 6 -31 12 -35 13 -5 2 -9 3 -10 5 -2 1 -10 3 -18 5 -124 30 -270 77
-482 157 -59 22 -113 41 -120 42 -7 2 -20 6 -28 9 -32 13 -249 86 -320 108
-41 12 -93 31 -115 42 -22 11 -40 18 -40 16 0 -2 -34 15 -76 38 -42 23 -88 45
-102 49 -15 3 -27 11 -27 17 0 6 -3 8 -6 5 -6 -7 -327 153 -353 175 -9 8 -47
28 -86 46 -100 45 -97 43 -122 91 -25 48 -57 82 -67 73 -3 -4 -6 26 -6 66 0
66 3 77 29 110 17 21 32 48 35 62 40 193 40 197 28 294 -11 89 -11 96 7 114
32 32 53 69 46 81 -3 5 -1 10 4 10 6 0 10 3 9 8 -2 7 32 102 56 157 8 17 19
48 26 70 23 75 64 161 85 180 48 42 226 338 343 570 39 78 116 276 136 350 2
6 6 17 9 25 15 40 58 164 84 240 24 70 33 85 53 91 14 3 24 11 22 17 -1 7 2
11 7 10 13 -4 101 72 201 173 90 92 98 101 145 164 16 22 34 43 39 46 5 4 5
12 1 19 -5 8 -4 11 2 7 8 -5 46 45 48 63 0 3 6 15 13 26 6 12 9 24 7 28 -3 3
-2 4 2 1 4 -3 16 14 28 37 56 111 91 174 99 179 5 4 6 14 3 24 -4 9 -3 14 3
10 6 -4 13 8 16 25 4 17 11 33 15 36 5 3 7 10 4 15 -4 5 -1 9 4 9 6 0 10 3 9
8 -2 11 14 66 23 78 10 12 23 76 23 116 1 14 4 24 9 21 4 -2 8 12 9 31 1 20 2
44 2 54 1 9 4 19 8 22 3 3 9 31 11 62 3 32 8 61 11 66 2 4 1 14 -4 22 -5 8 -5
19 -1 25 13 15 18 94 6 87 -5 -3 -5 1 2 9 19 23 19 25 3 44 -8 11 -10 16 -3
12 9 -5 10 28 7 135 -2 79 -6 159 -8 178 -3 19 -8 54 -11 78 -3 24 -10 52 -15
62 -6 10 -10 28 -10 39 0 12 -5 21 -11 21 -5 0 -8 4 -5 9 3 5 -1 14 -9 21 -8
7 -12 16 -9 21 3 5 2 9 -3 9 -4 0 -21 25 -37 55 -16 30 -31 55 -35 55 -4 0 -8
11 -9 25 -1 19 6 28 33 41 57 27 101 93 211 314 78 159 148 374 194 594 63
307 63 309 118 394 l34 53 -11 92 c-6 51 -14 136 -17 189 -5 71 -11 101 -23
111 -37 32 -441 188 -641 248 -52 15 -90 28 -83 28 8 1 4 22 -12 66 -13 36
-24 69 -25 73 -7 44 -24 92 -32 92 -5 0 -7 4 -4 9 8 12 -25 121 -36 121 -5 0
-7 4 -4 9 10 15 -26 122 -39 117 -18 -7 14 56 37 72 10 7 16 18 13 23 -4 5 -1
9 5 9 17 0 40 26 40 44 0 9 -4 24 -10 34 -18 31 -70 152 -70 162 0 6 -5 10
-11 10 -5 0 -8 4 -5 8 5 9 -77 181 -92 192 -4 3 -18 25 -31 50 -50 95 -65 120
-73 120 -4 0 -8 9 -8 20 0 11 -4 20 -10 20 -5 0 -10 6 -10 13 0 7 -8 22 -17
33 -10 11 -19 26 -21 34 -2 8 -8 17 -13 18 -5 2 -9 10 -9 18 0 8 -4 14 -10 14
-5 0 -9 6 -7 13 1 6 -3 11 -9 10 -7 -1 -11 3 -11 10 1 18 -26 77 -35 77 -4 0
-8 5 -8 10 0 19 -53 90 -67 90 -8 0 -11 -4 -8 -10 3 -5 4 -10 1 -10 -3 0 -28
48 -56 106 -54 114 -137 246 -191 305 -44 48 -145 160 -200 224 -86 97 -244
271 -298 329 -70 73 -407 344 -596 478 -131 93 -258 173 -345 217 -114 57
-438 166 -646 215 -82 20 -160 39 -174 43 -14 4 -32 8 -40 9 -8 2 -42 7 -75
13 -108 18 -157 23 -269 26 -61 1 -142 5 -181 9 -38 3 -101 9 -140 12 -83 6
-586 12 -665 7z m-1129 -863 c-30 -17 -58 -30 -63 -30 -4 0 -8 -4 -8 -9 0 -5
-17 -20 -37 -32 -21 -13 -40 -25 -43 -28 -3 -4 -14 -11 -25 -17 -74 -39 -98
-56 -165 -110 -41 -33 -122 -96 -179 -139 -351 -264 -526 -478 -690 -845 -19
-41 -44 -95 -56 -120 -12 -25 -30 -70 -40 -100 -10 -30 -35 -99 -56 -153 -49
-124 -149 -445 -189 -607 -29 -121 -53 -279 -64 -425 -13 -169 -20 -306 -21
-386 l0 -86 -140 -22 c-287 -46 -440 -94 -507 -159 -23 -22 -38 -30 -38 -22 0
36 42 372 55 440 21 112 54 230 138 485 94 287 128 380 167 456 16 33 30 71
30 85 0 31 -24 79 -61 121 l-28 33 33 72 c162 352 260 528 316 563 19 12 73
62 120 110 221 227 368 361 466 426 256 172 626 357 906 454 117 41 218 74
223 74 6 0 -14 -13 -44 -29z m5053 -1188 c3 -5 -1 -9 -9 -9 -8 0 -12 4 -9 9 3
4 7 8 9 8 2 0 6 -4 9 -8z m5 -64 c37 -84 60 -148 53 -148 -4 0 -23 43 -43 95
-38 98 -43 127 -10 53z m396 -870 c-22 -24 -41 -45 -42 -47 -2 -2 -6 -2 -9 1
-5 5 75 87 86 88 2 0 -14 -19 -35 -42z m-35 -4642 c0 -2 -7 -7 -16 -10 -8 -3
-12 -2 -9 4 6 10 25 14 25 6z m-7085 -1291 c-16 -13 -32 -22 -35 -19 -2 3 3
10 13 15 9 6 23 16 30 24 6 7 14 11 17 8 3 -3 -8 -15 -25 -28z m-2240 -2086
c-4 -5 -13 -9 -20 -9 -8 0 -29 -6 -47 -14 -49 -21 -166 -62 -225 -79 -60 -17
-73 -8 -15 10 20 6 51 17 67 24 53 22 209 74 228 76 9 1 15 -2 12 -8z m-476
-172 c-47 -23 -115 -52 -150 -64 -35 -12 -89 -31 -119 -43 -133 -51 -179 -67
-175 -59 3 4 22 13 43 20 20 6 62 23 92 36 30 14 60 26 65 27 6 2 21 8 35 14
66 29 276 111 285 110 6 0 -29 -18 -76 -41z m-779 -291 c0 -2 -13 -9 -30 -15
-16 -5 -30 -6 -30 -1 0 7 10 11 53 19 4 0 7 -1 7 -3z m12827 -302 c-3 -3 -12
-4 -19 -1 -8 3 -5 6 6 6 11 1 17 -2 13 -5z m38 -14 c3 -6 -1 -7 -9 -4 -18 7
-21 14 -7 14 6 0 13 -4 16 -10z m-5545 -1045 c7 -9 8 -15 2 -15 -5 0 -12 7
-16 15 -3 8 -4 15 -2 15 2 0 9 -7 16 -15z m30 -40 c0 -8 -2 -15 -4 -15 -2 0
-6 7 -10 15 -3 8 -1 15 4 15 6 0 10 -7 10 -15z"/>
</g>
</svg>
